# xmcd
#
# Track frame offsets: 
#        150
#        12164
#        23910
#        36431
#        46648
#        58802
#        71449
#        84547
#        97671
#        110226
#        123096
#        135399
#        146549
#        157326
#        169321
#        182202
#        195955
#        208197
#        220421
#        233545
#        248048
#        259696
#        272175
#        284196
#        294246
#        306604
#        317079
#        329091
#
# Disc length: 4532 seconds
#
# Revision: 0
# Processed by: cddbd v1.5.1PL0 Copyright (c) Steve Scherf et al.
# Submitted via: ExactAudioCopy v0.95a5
#
DISCID=ac11b21c
DTITLE=Various Artist - The Rlatters
DYEAR=1900
DGENRE=Blues
TTITLE0=Only You
TTITLE1=Sixteens Tons
TTITLE2=You'll Never Never Know
TTITLE3=Smoke Gets In Your Eyes
TTITLE4=Twilight Time
TTITLE5=The Great Pretender
TTITLE6=My Prayer
TTITLE7=I'm Sorry
TTITLE8=One In A Million
TTITLE9=You're Making A Mistake
TTITLE10=It's Raining Outside
TTITLE11=Where
TTITLE12=Ebb Tide
TTITLE13=He's Mine
TTITLE14=My Dream
TTITLE15=Only Because
TTITLE16=The Mystery Of You
TTITLE17=Helpless
TTITLE18=My Old Flame
TTITLE19=Enchanted
TTITLE20=Harbor On Lighte
TTITLE21=Heaven On Earth
TTITLE22=Glory Of Love
TTITLE23=For The First Time
TTITLE24=It Isn't Right
TTITLE25=I Give You My Word
TTITLE26=On My Word Of Honor
TTITLE27=Indifferent
EXTD=
EXTT0=
EXTT1=
EXTT2=
EXTT3=
EXTT4=
EXTT5=
EXTT6=
EXTT7=
EXTT8=
EXTT9=
EXTT10=
EXTT11=
EXTT12=
EXTT13=
EXTT14=
EXTT15=
EXTT16=
EXTT17=
EXTT18=
EXTT19=
EXTT20=
EXTT21=
EXTT22=
EXTT23=
EXTT24=
EXTT25=
EXTT26=
EXTT27=
PLAYORDER=
